<mxfile host="app.diagrams.net" agent="Mozilla/5.0 (Windows NT 10.0; Win64; x64) AppleWebKit/537.36 (KHTML, like Gecko) Chrome/134.0.0.0 Safari/537.36" version="26.1.1">
  <diagram name="Page-1" id="Ir8fBimL4Sfwo27YRPzz">
    <mxGraphModel dx="1434" dy="784" grid="1" gridSize="10" guides="1" tooltips="1" connect="1" arrows="1" fold="1" page="1" pageScale="1" pageWidth="850" pageHeight="1100" math="1" shadow="0">
      <root>
        <mxCell id="0" />
        <mxCell id="1" parent="0" />
        <mxCell id="MaLlGU65rQBpSgFHFczV-3" value="" style="edgeStyle=orthogonalEdgeStyle;rounded=0;orthogonalLoop=1;jettySize=auto;html=1;" edge="1" parent="1" target="MaLlGU65rQBpSgFHFczV-2">
          <mxGeometry relative="1" as="geometry">
            <mxPoint x="60" y="280" as="sourcePoint" />
          </mxGeometry>
        </mxCell>
        <mxCell id="MaLlGU65rQBpSgFHFczV-5" value="" style="edgeStyle=orthogonalEdgeStyle;rounded=0;orthogonalLoop=1;jettySize=auto;html=1;" edge="1" parent="1" source="MaLlGU65rQBpSgFHFczV-2" target="MaLlGU65rQBpSgFHFczV-4">
          <mxGeometry relative="1" as="geometry" />
        </mxCell>
        <mxCell id="MaLlGU65rQBpSgFHFczV-2" value="编码器" style="rounded=1;whiteSpace=wrap;html=1;fontFamily=SimSun;fontSize=17;fillColor=#d5e8d4;strokeColor=#82b366;" vertex="1" parent="1">
          <mxGeometry x="10" y="200" width="100" height="50" as="geometry" />
        </mxCell>
        <mxCell id="MaLlGU65rQBpSgFHFczV-4" value="\(q\)" style="text;html=1;align=center;verticalAlign=middle;resizable=0;points=[];autosize=1;strokeColor=none;fillColor=none;fontSize=22;fontFamily=Times New Roman;" vertex="1" parent="1">
          <mxGeometry x="30" y="120" width="60" height="40" as="geometry" />
        </mxCell>
        <mxCell id="MaLlGU65rQBpSgFHFczV-18" style="rounded=0;orthogonalLoop=1;jettySize=auto;html=1;" edge="1" parent="1" source="MaLlGU65rQBpSgFHFczV-6" target="MaLlGU65rQBpSgFHFczV-17">
          <mxGeometry relative="1" as="geometry" />
        </mxCell>
        <mxCell id="MaLlGU65rQBpSgFHFczV-6" value="相似度" style="text;html=1;align=center;verticalAlign=middle;resizable=0;points=[];autosize=1;strokeColor=none;fillColor=none;fontSize=17;fontFamily=SimSun;" vertex="1" parent="1">
          <mxGeometry x="120" y="60" width="70" height="30" as="geometry" />
        </mxCell>
        <mxCell id="MaLlGU65rQBpSgFHFczV-22" style="edgeStyle=orthogonalEdgeStyle;rounded=0;orthogonalLoop=1;jettySize=auto;html=1;exitX=0.5;exitY=0;exitDx=0;exitDy=0;entryX=0.5;entryY=1;entryDx=0;entryDy=0;" edge="1" parent="1" source="MaLlGU65rQBpSgFHFczV-8" target="MaLlGU65rQBpSgFHFczV-21">
          <mxGeometry relative="1" as="geometry" />
        </mxCell>
        <mxCell id="MaLlGU65rQBpSgFHFczV-8" value="动量&lt;div&gt;编码器&lt;/div&gt;" style="rounded=1;whiteSpace=wrap;html=1;fontFamily=SimSun;fontSize=17;fillColor=#dae8fc;strokeColor=#6c8ebf;" vertex="1" parent="1">
          <mxGeometry x="195" y="200" width="100" height="50" as="geometry" />
        </mxCell>
        <mxCell id="MaLlGU65rQBpSgFHFczV-10" value="" style="shape=curlyBracket;whiteSpace=wrap;html=1;rounded=1;labelPosition=left;verticalLabelPosition=middle;align=right;verticalAlign=middle;rotation=90;" vertex="1" parent="1">
          <mxGeometry x="230" y="200" width="30" height="130" as="geometry" />
        </mxCell>
        <mxCell id="MaLlGU65rQBpSgFHFczV-14" value="负特征队列" style="text;html=1;align=center;verticalAlign=middle;resizable=0;points=[];autosize=1;strokeColor=none;fillColor=none;fontFamily=SimSun;fontSize=17;" vertex="1" parent="1">
          <mxGeometry x="148" y="160" width="110" height="30" as="geometry" />
        </mxCell>
        <mxCell id="MaLlGU65rQBpSgFHFczV-15" style="edgeStyle=orthogonalEdgeStyle;rounded=0;orthogonalLoop=1;jettySize=auto;html=1;entryX=-0.014;entryY=0.533;entryDx=0;entryDy=0;entryPerimeter=0;" edge="1" parent="1" source="MaLlGU65rQBpSgFHFczV-4" target="MaLlGU65rQBpSgFHFczV-6">
          <mxGeometry relative="1" as="geometry">
            <Array as="points">
              <mxPoint x="60" y="76" />
            </Array>
          </mxGeometry>
        </mxCell>
        <mxCell id="MaLlGU65rQBpSgFHFczV-16" style="edgeStyle=orthogonalEdgeStyle;rounded=0;orthogonalLoop=1;jettySize=auto;html=1;" edge="1" parent="1" target="MaLlGU65rQBpSgFHFczV-6">
          <mxGeometry relative="1" as="geometry">
            <mxPoint x="245" y="120" as="sourcePoint" />
            <mxPoint x="304" y="76" as="targetPoint" />
            <Array as="points">
              <mxPoint x="245" y="76" />
            </Array>
          </mxGeometry>
        </mxCell>
        <mxCell id="MaLlGU65rQBpSgFHFczV-17" value="对比损失" style="text;html=1;align=center;verticalAlign=middle;resizable=0;points=[];autosize=1;strokeColor=none;fillColor=none;fontSize=17;fontFamily=SimSun;" vertex="1" parent="1">
          <mxGeometry x="110" width="90" height="30" as="geometry" />
        </mxCell>
        <mxCell id="MaLlGU65rQBpSgFHFczV-21" value="&lt;span style=&quot;font-family: &amp;quot;Times New Roman&amp;quot;; font-size: 18px; text-wrap-mode: nowrap;&quot;&gt;$$k_0 \quad k_1 \quad k_2 \quad \dots$$&lt;/span&gt;" style="text;html=1;align=center;verticalAlign=middle;whiteSpace=wrap;rounded=0;" vertex="1" parent="1">
          <mxGeometry x="215" y="135" width="60" as="geometry" />
        </mxCell>
        <mxCell id="MaLlGU65rQBpSgFHFczV-23" value="&lt;span style=&quot;text-wrap-mode: nowrap;&quot;&gt;$$x_0^{\text{key}} \quad x_1^{\text{key}} \quad x_2^{\text{key}} \dots$$&lt;/span&gt;" style="text;html=1;align=center;verticalAlign=middle;whiteSpace=wrap;rounded=0;fontFamily=Times New Roman;fontSize=18;" vertex="1" parent="1">
          <mxGeometry x="230" y="287.5" width="58" height="5" as="geometry" />
        </mxCell>
        <mxCell id="MaLlGU65rQBpSgFHFczV-24" value="&lt;span style=&quot;text-wrap-mode: nowrap;&quot;&gt;\(x^{query}\)&lt;/span&gt;" style="text;html=1;align=center;verticalAlign=middle;whiteSpace=wrap;rounded=0;fontFamily=Times New Roman;fontSize=19;" vertex="1" parent="1">
          <mxGeometry x="30" y="292.5" width="68" height="5" as="geometry" />
        </mxCell>
      </root>
    </mxGraphModel>
  </diagram>
</mxfile>
